<?xml version="1.0" encoding="UTF-8"?>
<svg xmlns="http://www.w3.org/2000/svg" width="54.587" height="55.058" viewBox="0 0 54.587 55.058"><defs><style>.a{fill:none;}.b,.d{fill:#fff;}.b{font-size:31px;font-family:SegoeUI, Segoe UI;letter-spacing:-0.02em;}.c,.d{stroke:none;}</style></defs><g transform="translate(0 2.517)"><g class="a" transform="translate(-146.392)"><path class="c" d="M150.633,0h46.1a4.434,4.434,0,0,1,4.242,4.6V52.541L187.853,41.43h-37.22a4.434,4.434,0,0,1-4.242-4.6V4.6A4.434,4.434,0,0,1,150.633,0Z"/><path class="d" d="M 150.6331481933594 2.000003814697266 C 149.3971252441406 2.000003814697266 148.3915405273438 3.167861938476563 148.3915405273438 4.603351593017578 L 148.3915405273438 36.82681274414063 C 148.3915405273438 38.26230239868164 149.3971252441406 39.4301643371582 150.6331481933594 39.4301643371582 L 187.8533630371094 39.4301643371582 L 188.5862426757813 39.4301643371582 L 189.1455993652344 39.90369415283203 L 198.9786376953125 48.22790908813477 L 198.9786376953125 4.603351593017578 C 198.9786376953125 3.167861938476563 197.9730529785156 2.000003814697266 196.7370300292969 2.000003814697266 L 150.6331481933594 2.000003814697266 M 150.6331481933594 3.814697265625e-06 L 196.7370300292969 3.814697265625e-06 C 199.07958984375 3.814697265625e-06 200.9786376953125 2.060981750488281 200.9786376953125 4.603351593017578 L 200.9786376953125 52.54144287109375 L 187.8533630371094 41.4301643371582 L 150.6331481933594 41.4301643371582 C 148.2905883789063 41.4301643371582 146.3915405273438 39.36917114257813 146.3915405273438 36.82681274414063 L 146.3915405273438 4.603351593017578 C 146.3915405273438 2.060981750488281 148.2905883789063 3.814697265625e-06 150.6331481933594 3.814697265625e-06 Z"/></g><text class="b" transform="translate(26.827 30.483)"><tspan x="-6.948" y="0">?</tspan></text></g></svg>