<svg xmlns="http://www.w3.org/2000/svg" width="26.25" height="26.249" viewBox="0 0 26.25 26.249">
  <g id="Group_2241" data-name="Group 2241" transform="translate(-7975.875 -8796.875)">
    <path id="Union_23" data-name="Union 23" d="M9.13-.625a3.712,3.712,0,0,1,3.681,3H25a.625.625,0,0,1,0,1.25H12.81a3.758,3.758,0,0,1-7.361,0H0A.625.625,0,0,1-.625,3,.625.625,0,0,1,0,2.375H5.449A3.712,3.712,0,0,1,9.13-.625Zm0,6A2.435,2.435,0,0,0,11.616,3,2.435,2.435,0,0,0,9.13.625,2.435,2.435,0,0,0,6.643,3,2.435,2.435,0,0,0,9.13,5.374Z" transform="translate(7976.5 8797.5)" fill="#5e5e5e"/>
    <path id="Union_24" data-name="Union 24" d="M18.13-.625a3.712,3.712,0,0,1,3.681,3H25a.625.625,0,0,1,0,1.25H21.81a3.758,3.758,0,0,1-7.361,0H0A.625.625,0,0,1-.625,3,.625.625,0,0,1,0,2.375H14.449A3.712,3.712,0,0,1,18.13-.625Zm0,6A2.435,2.435,0,0,0,20.616,3a2.489,2.489,0,0,0-4.973,0A2.435,2.435,0,0,0,18.13,5.374Z" transform="translate(7976.5 8807)" fill="#5e5e5e"/>
    <path id="Union_25" data-name="Union 25" d="M9.13-.625a3.712,3.712,0,0,1,3.681,3H25a.625.625,0,0,1,0,1.25H12.81a3.758,3.758,0,0,1-7.361,0H0A.625.625,0,0,1-.625,3,.625.625,0,0,1,0,2.375H5.449A3.712,3.712,0,0,1,9.13-.625Zm0,6A2.435,2.435,0,0,0,11.616,3,2.435,2.435,0,0,0,9.13.625,2.435,2.435,0,0,0,6.643,3,2.435,2.435,0,0,0,9.13,5.374Z" transform="translate(7976.5 8816.5)" fill="#5e5e5e"/>
  </g>
</svg>
