<svg xmlns="http://www.w3.org/2000/svg" width="251.845" height="148.032" viewBox="0 0 251.845 148.032">
  <g id="Group_1005" data-name="Group 1005" transform="translate(0.9 0.9)" opacity="1">
    <g id="Group_5" data-name="Group 5" transform="translate(58.976 8.539)">
      <path id="Path_8" data-name="Path 8" d="M46.628,24.348c-5.728,0-8.414-3.038-8.414-6.231V3.617h6.123V17.656c0,.885.751,1.654,2.331,1.654,1.541,0,2.331-.731,2.331-1.654V3.617h6.123v14.5c-.04,3.269-3.081,6.231-8.493,6.231m20.62-.423c4.108,0,6.873-2.154,6.873-6.192a4.975,4.975,0,0,0-2.884-4.577,4.655,4.655,0,0,0,2.331-4c0-3.154-2.252-5.539-6.676-5.539H57.017V23.925H67.248m.2-14.039c0,1.077-.474,1.808-1.58,1.808H63.021V8.079h2.844c1.106,0,1.58.692,1.58,1.808m-1.264,9.539H63.061V15.579h3.121c1.146,0,1.738.692,1.738,1.923,0,1.154-.553,1.923-1.738,1.923M32.25,23.733c3-.615,4.859-2.5,4.859-5.654,0-3.769-2.489-4.846-6.992-6.923-2.133-1-2.686-1.231-2.686-1.885a.876.876,0,0,1,.988-.846L36,8.54V3.655s-4.622-.077-6.281-.115A20.624,20.624,0,0,0,27,3.655c-3.318.423-5.53,2.538-5.53,5.539,0,3.923,2.884,5.115,6.557,6.808,2.291,1.038,3.081,1.308,3.081,2.115,0,.462-.316.885-1.106.846l-8.1-.077V16.309l-6.32,5.077,6.32,5.077V23.848l7.189.038a20.426,20.426,0,0,0,3.16-.154" transform="translate(-15.58 -0.963)"/>
      <path id="Path_9" data-name="Path 9" d="M82.1,13.524c0,.769.553,1.654,2.331,1.654,1.817,0,2.331-.885,2.331-1.654V10.332c0-2.885,1.5-4.885,5.056-4.885h4.187V2.87l6.32,5.077-6.32,5.077V10.485H93.281c-.356,0-.514.192-.514.462V14.1c0,2.808-1.9,4.962-5.254,5.846v5.885H81.352V19.947c-3.358-.885-5.333-3.038-5.333-5.846V5.524h6.044l.04,8ZM48.407,26.178c5.1,0,7.505-3,7.505-6.308V5.524H49.829V19.716c0,.615-.356,1.308-1.738,1.308s-1.738-.692-1.738-1.308V5.524H40.27V19.716c0,.615-.355,1.308-1.738,1.308s-1.7-.731-1.7-1.308V5.524H30.75V19.832c0,3.308,2.212,6.308,7.663,6.308a7.963,7.963,0,0,0,4.9-1.577,7.864,7.864,0,0,0,5.1,1.615m15.485-.346V19.947h4.622v5.885H74.6v-14.5c0-3.654-3.121-6.385-8.374-6.385-5.293,0-8.374,2.731-8.374,6.385v14.5Zm4.622-10.539H63.892V11.678c0-.962.672-1.654,2.291-1.654s2.291.692,2.291,1.654Z" transform="translate(29.174 -2.87)"/>
    </g>
    <g id="Group_6" data-name="Group 6">
      <path id="Path_10" data-name="Path 10" d="M.65,11.73V20L26.563,38.307" transform="translate(-0.65 30.886)" fill="none" stroke="#000" stroke-linecap="round" stroke-linejoin="round" stroke-miterlimit="10" stroke-width="1.8"/>
      <path id="Path_11" data-name="Path 11" d="M57.29,38.5,83.6,20V11.73" transform="translate(166.447 30.886)" fill="none" stroke="#000" stroke-linecap="round" stroke-linejoin="round" stroke-miterlimit="10" stroke-width="1.8"/>
      <path id="Path_12" data-name="Path 12" d="M202.4,106.169,7.58,106.438V15.091L202.4,14.86Z" transform="translate(19.795 39.794)" fill="none" stroke="#000" stroke-linecap="round" stroke-linejoin="round" stroke-miterlimit="10" stroke-width="1.8"/>
      <path id="Path_13" data-name="Path 13" d="M36.584,79.142H10.71V18.18" transform="translate(29.029 49.244)" fill="none" stroke="#000" stroke-linecap="round" stroke-linejoin="round" stroke-miterlimit="10" stroke-width="1.8"/>
      <path id="Path_14" data-name="Path 14" d="M17.26,79.142H43.173V18.18" transform="translate(48.352 49.244)" fill="none" stroke="#000" stroke-linecap="round" stroke-linejoin="round" stroke-miterlimit="10" stroke-width="1.8"/>
      <path id="Path_15" data-name="Path 15" d="M26.95,96.989V18.18H68.743V96.989" transform="translate(76.939 49.244)" fill="none" stroke="#000" stroke-linecap="round" stroke-linejoin="round" stroke-miterlimit="10" stroke-width="1.8"/>
      <path id="Path_16" data-name="Path 16" d="M66.534,79.142H40.66V18.18" transform="translate(117.386 49.244)" fill="none" stroke="#000" stroke-linecap="round" stroke-linejoin="round" stroke-miterlimit="10" stroke-width="1.8"/>
      <path id="Path_17" data-name="Path 17" d="M47.21,79.142H73.123V18.18" transform="translate(136.71 49.244)" fill="none" stroke="#000" stroke-linecap="round" stroke-linejoin="round" stroke-miterlimit="10" stroke-width="1.8"/>
      <path id="Path_18" data-name="Path 18" d="M210.483,3.03H250.7V36.492H.65V3.03H40.389" transform="translate(-0.65 6.124)" fill="none" stroke="#000" stroke-linecap="round" stroke-linejoin="round" stroke-miterlimit="10" stroke-width="1.8"/>
      <rect id="Rectangle_21" data-name="Rectangle 21" width="170.055" height="42.616" transform="translate(39.739)" fill="none" stroke="#000" stroke-linecap="round" stroke-linejoin="round" stroke-miterlimit="10" stroke-width="1.8"/>
    </g>
  </g>
</svg>
